Patient4_TMGait_0pt6_01_right_36_GRF.mot
version=1
nRows=78
nColumns=19
inDegrees=no
endheader
time	F1x	F1y	F1z	M1x	M1y	M1z	F2x	F2y	F2z	M2x	M2y	M2z	EC1x	EC1y	EC1z	EC2x	EC2y	EC2z
43.23	12.7956	753.4022	62.6649	-259.9076	-61.5245	769.4499	1.6238	-3.0741	8.1809	-1.8629	-7.7456	3.8063	-0.0592	0.0182	-0.0073	-0.0462	0.0165	0.9585
43.2423	9.6853	747.2706	61.9291	-258.0712	-60.0212	757.9589	0.90125	-0.96123	5.3988	-0.76777	-5.0005	3.7668	-0.0592	0.0182	-0.0073	-0.0462	0.0165	0.9585
43.2546	7.785	741.2231	60.9987	-256.2018	-58.0735	746.2736	0.30917	0.82808	3.0845	0.15437	-2.7127	3.7443	-0.0592	0.0182	-0.0073	-0.0462	0.0165	0.9585
43.2669	7.1947	735.8097	59.9312	-254.4924	-55.7991	735.1917	-0.12273	2.2011	1.3417	0.86262	-0.98899	3.7394	-0.0592	0.0182	-0.0073	-0.0462	0.0165	0.9585
43.2791	7.7421	731.4555	58.7855	-253.1001	-53.3276	725.2806	-0.42578	3.1787	0.14946	1.3668	0.1939	3.7755	-0.0592	0.0182	-0.0073	-0.0462	0.0165	0.9585
43.2914	9.1671	728.474	57.6077	-252.1444	-50.7611	716.9086	-0.61557	3.8029	-0.5864	1.6933	0.92646	3.8153	-0.0592	0.0182	-0.0073	-0.0462	0.0165	0.9585
43.3037	11.1992	727.0923	56.4379	-251.7069	-48.1821	710.3169	-0.74301	4.1449	-0.97826	1.875	1.3272	3.8416	-0.0592	0.0182	-0.0073	-0.0462	0.0165	0.9585
43.316	13.5953	727.4177	55.3147	-251.8205	-45.6553	705.6014	-0.83033	4.2345	-1.1361	1.9304	1.5044	3.78	-0.0592	0.0182	-0.0073	-0.0462	0.0165	0.9585
43.3283	16.1582	729.4649	54.2894	-252.4728	-43.2469	702.7772	-0.92308	4.0758	-1.1492	1.8643	1.5533	3.5675	-0.0592	0.0182	-0.0073	-0.0462	0.0165	0.9585
43.3406	18.7291	733.1025	53.4173	-253.599	-41.0219	701.7077	-1.028	3.6159	-1.0807	1.6602	1.5323	3.0906	-0.0592	0.0182	-0.0073	-0.0462	0.0165	0.9585
43.3529	21.1762	738.0595	52.7562	-255.0854	-39.0466	702.1283	-1.1522	2.7798	-0.98047	1.2884	1.4876	2.2297	-0.0592	0.0182	-0.0073	-0.0462	0.0165	0.9585
43.3651	23.4339	743.887	52.3601	-256.7639	-37.3762	703.6005	-1.276	1.4556	-0.87195	0.70738	1.4308	0.82529	-0.0592	0.0182	-0.0073	-0.0462	0.0165	0.9585
43.3774	25.4751	749.9804	52.2568	-258.4225	-36.0411	705.5539	-1.362	-0.44515	-0.77496	-0.11765	1.3593	-1.2349	-0.0592	0.0182	-0.0073	-0.0462	0.0165	0.9585
43.3897	27.3321	755.6251	52.4374	-259.8252	-35.0251	707.2747	-1.3415	-2.9461	-0.68335	-1.1947	1.2349	-3.9849	-0.0592	0.0182	-0.0073	-0.0462	0.0165	0.9585
43.402	29.0761	760.0981	52.8459	-260.7383	-34.2644	708.0547	-1.1296	-5.9304	-0.59339	-2.473	1.0147	-7.2932	-0.0592	0.0182	-0.0073	-0.0462	0.0165	0.9585
43.4143	30.8414	762.7671	53.4102	-260.9621	-33.6616	707.2571	-0.60798	-9.0468	-0.48006	-3.804	0.62766	-10.765	-0.0592	0.0182	-0.0073	-0.0462	0.0165	0.9585
43.4266	32.7548	763.2426	54.0786	-260.3768	-33.1406	704.4845	0.36187	-11.607	-0.32964	-4.8924	0.0092743	-13.6298	-0.0592	0.0182	-0.0073	-0.0462	0.0165	0.9585
43.4389	34.971	761.3896	54.8257	-258.9511	-32.6389	699.5559	1.9031	-12.4586	-0.11739	-5.2466	-0.90747	-14.5828	-0.0592	0.0182	-0.0073	-0.0462	0.0165	0.9585
43.4511	37.6144	757.2348	55.6349	-256.7099	-32.1112	692.464	4.1177	-9.9081	0.16286	-4.1466	-2.1601	-11.6924	-0.0592	0.0182	-0.0073	-0.0462	0.0165	0.9585
43.4634	40.7589	750.7408	56.4631	-253.6632	-31.505	683.159	6.9966	-1.6907	0.5078	-0.6344	-3.7272	-2.3584	-0.0592	0.0182	-0.0073	-0.0462	0.0165	0.9585
43.4757	44.415	741.6353	57.2241	-249.7473	-30.7485	671.4285	10.3739	14.9167	0.89032	6.4397	-5.4853	16.5381	-0.0592	0.0182	-0.0073	-0.0462	0.0165	0.9585
43.488	48.4971	729.3171	57.7622	-244.7944	-29.7374	656.811	13.7801	42.7844	1.2419	18.2841	-7.1364	48.2823	-0.0592	0.0182	-0.0073	-0.0462	0.0165	0.9585
43.5003	52.7783	712.805	57.8324	-238.5152	-28.3333	638.5446	16.3459	84.2729	1.4519	35.8904	-8.1649	95.5763	-0.0592	0.0182	-0.0073	-0.0462	0.0165	0.9585
43.5126	56.894	690.8013	57.1338	-230.5149	-26.3924	615.6362	16.6729	140.2225	1.3402	59.5989	-7.7701	159.3917	-0.0592	0.0182	-0.0073	-0.0462	0.0165	0.9585
43.5249	60.3826	661.8708	55.3845	-220.3485	-23.8214	586.9754	12.9349	208.5442	0.67456	88.5064	-4.9416	237.3612	-0.0592	0.0182	-0.0073	-0.0462	0.0165	0.9585
43.5371	62.6868	624.7313	52.4127	-207.6104	-20.6532	551.5791	3.9892	283.2883	-0.93061	120.0525	1.1893	322.7469	-0.0592	0.0182	-0.0073	-0.0462	0.0165	0.9585
43.5494	63.2767	578.6349	48.2308	-192.0549	-17.0772	508.8873	-8.3994	355.8706	-4.484	150.5245	10.9276	405.727	-0.0592	0.0182	-0.0073	-0.0462	0.0165	0.9585
43.5617	61.7216	523.8522	43.0714	-173.7483	-13.4376	459.1946	-21.2679	419.1681	-10.4378	176.8853	23.3941	477.9125	-0.0592	0.0182	-0.0073	-0.0462	0.0165	0.9585
43.574	57.8124	461.9206	37.3619	-153.1477	-10.162	403.8465	-32.8148	471.4833	-18.021	198.4108	36.9559	537.091	-0.0592	0.0182	-0.0073	-0.0462	0.0165	0.9585
43.5863	51.6229	395.3784	31.5831	-131.0401	-7.6204	345.0179	-42.0046	514.7628	-26.2515	215.9934	50.0641	585.3435	-0.0592	0.0182	-0.0073	-0.0462	0.0165	0.9585
43.5986	43.5136	327.4958	26.1081	-108.4689	-5.9926	285.4775	-48.7637	552.1427	-33.873	231.0641	61.3236	626.2587	-0.0592	0.0182	-0.0073	-0.0462	0.0165	0.9585
43.6109	34.1132	261.8054	21.1591	-86.5953	-5.2448	228.1823	-53.3977	586.403	-40.2401	244.89	70.16	663.0319	-0.0592	0.0182	-0.0073	-0.0462	0.0165	0.9585
43.6231	24.3001	201.5801	16.8385	-66.5161	-5.1575	175.8435	-56.2672	619.5807	-44.9592	258.3816	76.3481	697.9906	-0.0592	0.0182	-0.0073	-0.0462	0.0165	0.9585
43.6354	15.0347	149.1969	13.1931	-49.0418	-5.4364	130.3966	-57.6475	652.6147	-48.3489	271.9346	80.3729	732.2374	-0.0592	0.0182	-0.0073	-0.0462	0.0165	0.9585
43.6477	7.0672	105.7672	10.1711	-34.5674	-5.7728	92.7218	-57.8102	685.1256	-50.7203	285.3563	82.7253	765.43	-0.0592	0.0182	-0.0073	-0.0462	0.0165	0.9585
43.66	0.83266	71.293	7.6681	-23.1123	-5.9236	62.7809	-57.0778	715.5237	-52.681	297.9307	84.187	795.9279	-0.0592	0.0182	-0.0073	-0.0462	0.0165	0.9585
43.6723	-3.4775	45.0432	5.5897	-14.4377	-5.7445	39.9464	-55.8168	741.8847	-54.4835	308.8117	85.194	821.7413	-0.0592	0.0182	-0.0073	-0.0462	0.0165	0.9585
43.6846	-5.8492	25.8523	3.8598	-8.1509	-5.1696	23.2112	-54.2978	762.6717	-56.2963	317.3304	86.0363	841.2814	-0.0592	0.0182	-0.0073	-0.0462	0.0165	0.9585
43.6969	-6.4681	12.5099	2.4404	-3.8322	-4.2363	11.5367	-52.6504	777.0211	-57.9596	323.1299	86.6122	853.6529	-0.0592	0.0182	-0.0073	-0.0462	0.0165	0.9585
43.7091	-5.817	3.9183	1.32	-1.099	-3.1045	3.9652	-50.8706	784.6967	-59.3952	326.1286	86.838	858.6387	-0.0592	0.0182	-0.0073	-0.0462	0.0165	0.9585
43.7214	-4.5877	-0.92543	0.53168	0.40152	-2.0388	-0.34275	-48.9113	786.0504	-60.386	326.4999	86.4836	856.6386	-0.0592	0.0182	-0.0073	-0.0462	0.0165	0.9585
43.7337	-3.2115	-3.0835	0.041766	1.0296	-1.1644	-2.3048	-46.7676	781.8941	-60.8971	324.61	85.5176	848.5541	-0.0592	0.0182	-0.0073	-0.0462	0.0165	0.9585
43.746	-1.9724	-3.4864	-0.22048	1.1001	-0.52305	-2.7018	-44.4669	773.5815	-60.875	321.0419	83.9221	835.8603	-0.0592	0.0182	-0.0073	-0.0462	0.0165	0.9585
43.7583	-0.97039	-2.8997	-0.3228	0.86673	-0.10072	-2.2333	-42.073	762.8964	-60.4387	316.5415	81.8716	820.4931	-0.0592	0.0182	-0.0073	-0.0462	0.0165	0.9585
43.7706	-0.25374	-1.8615	-0.32796	0.50626	0.14083	-1.3604	-39.6857	751.7886	-59.671	311.9224	79.5188	804.5431	-0.0592	0.0182	-0.0073	-0.0462	0.0165	0.9585
43.7829	0.22049	-0.7397	-0.28409	0.13118	0.25683	-0.40509	-37.3999	742.1377	-58.7202	307.9626	77.0712	790.01	-0.0592	0.0182	-0.0073	-0.0462	0.0165	0.9585
43.7951	0.48336	0.27958	-0.2272	-0.19992	0.29173	0.4848	-35.2926	735.5223	-57.6444	305.3123	74.6315	778.5457	-0.0592	0.0182	-0.0073	-0.0462	0.0165	0.9585
43.8074	0.6028	1.106	-0.1797	-0.46133	0.28927	1.2247	-33.4399	733.0289	-56.5254	304.4104	72.3132	771.2774	-0.0592	0.0182	-0.0073	-0.0462	0.0165	0.9585
43.8197	0.63659	1.7295	-0.14972	-0.65233	0.27566	1.8049	-31.8856	735.1555	-55.4264	305.4442	70.2029	768.7163	-0.0592	0.0182	-0.0073	-0.0462	0.0165	0.9585
43.832	0.61946	2.1782	-0.14351	-0.78504	0.26731	2.2478	-30.6591	741.7675	-54.4398	308.3368	68.4069	770.7226	-0.0592	0.0182	-0.0073	-0.0462	0.0165	0.9585
43.8443	0.58486	2.4846	-0.15335	-0.87215	0.26459	2.5719	-29.7861	752.1782	-53.6391	312.7807	67.0012	776.6089	-0.0592	0.0182	-0.0073	-0.0462	0.0165	0.9585
43.8566	0.53929	2.6915	-0.17776	-0.92897	0.26878	2.823	-29.2493	765.2472	-53.0705	318.2802	66.0135	785.2386	-0.0592	0.0182	-0.0073	-0.0462	0.0165	0.9585
43.8689	0.49761	2.8185	-0.20043	-0.96339	0.27108	2.9942	-29.0011	779.4805	-52.7461	324.2024	65.4187	795.13	-0.0592	0.0182	-0.0073	-0.0462	0.0165	0.9585
43.8811	0.44215	2.8971	-0.22268	-0.98497	0.27187	3.1085	-28.9363	793.2172	-52.635	329.8526	65.1277	804.6365	-0.0592	0.0182	-0.0073	-0.0462	0.0165	0.9585
43.8934	0.38919	2.9102	-0.22782	-0.99024	0.26425	3.1357	-28.9352	804.8345	-52.6927	334.557	65.0275	812.1526	-0.0592	0.0182	-0.0073	-0.0462	0.0165	0.9585
43.9057	0.30781	2.8359	-0.22529	-0.9711	0.24914	3.063	-28.8798	812.8927	-52.8312	337.7276	64.9645	816.2561	-0.0592	0.0182	-0.0073	-0.0462	0.0165	0.9585
43.918	0.20881	2.6037	-0.20524	-0.90092	0.21496	2.801	-28.6654	816.3015	-52.9649	338.9302	64.8002	815.8753	-0.0592	0.0182	-0.0073	-0.0462	0.0165	0.9585
43.9303	0.071988	2.1428	-0.18352	-0.75098	0.16454	2.2888	-28.2093	814.4899	-52.9663	337.9487	64.3765	810.4563	-0.0592	0.0182	-0.0073	-0.0462	0.0165	0.9585
43.9426	-0.092753	1.3503	-0.14937	-0.48388	0.085341	1.4064	-27.4495	807.4248	-52.7405	334.7905	63.5831	799.9681	-0.0592	0.0182	-0.0073	-0.0462	0.0165	0.9585
43.9549	-0.30116	0.13901	-0.11204	-0.065038	-0.016718	0.067443	-26.3522	795.5734	-52.2533	329.6609	62.3795	784.8646	-0.0592	0.0182	-0.0073	-0.0462	0.0165	0.9585
43.9671	-0.51276	-1.567	-0.069131	0.53508	-0.12793	-1.8192	-24.8828	779.812	-51.5501	322.9281	60.8055	765.9794	-0.0592	0.0182	-0.0073	-0.0462	0.0165	0.9585
43.9794	-0.69402	-3.7524	-0.029848	1.3146	-0.22104	-4.231	-23.043	761.3621	-50.7279	315.0945	58.9554	744.4844	-0.0592	0.0182	-0.0073	-0.0462	0.0165	0.9585
43.9917	-0.76012	-6.2861	0.0021227	2.2252	-0.25744	-7.0273	-20.8088	741.6225	-49.9342	306.7326	56.9619	721.7008	-0.0592	0.0182	-0.0073	-0.0462	0.0165	0.9585
44.004	-0.58481	-8.8042	0.016646	3.1345	-0.18286	-9.805	-18.1799	722.0152	-49.2946	298.4198	54.9406	698.9789	-0.0592	0.0182	-0.0073	-0.0462	0.0165	0.9585
44.0163	-0.003564	-10.6392	0.0090832	3.798	0.060659	-11.8402	-15.1283	703.7625	-48.9012	290.6568	52.9711	677.4508	-0.0592	0.0182	-0.0073	-0.0462	0.0165	0.9585
44.0286	1.1801	-10.7334	-0.022769	3.8282	0.54053	-11.979	-11.6617	687.8361	-48.7852	283.8346	51.0848	658.0372	-0.0592	0.0182	-0.0073	-0.0462	0.0165	0.9585
44.0409	3.1675	-7.5613	-0.080916	2.6705	1.3265	-8.5262	-7.77	674.8306	-48.947	278.1938	49.275	641.2906	-0.0592	0.0182	-0.0073	-0.0462	0.0165	0.9585
44.0531	6.1388	0.86562	-0.16463	-0.39494	2.4743	0.71838	-3.4864	664.9851	-49.3306	273.8289	47.4939	627.4562	-0.0592	0.0182	-0.0073	-0.0462	0.0165	0.9585
44.0654	10.1392	16.8793	-0.28151	-6.2052	3.9956	18.3337	1.1419	658.1552	-49.8356	270.6865	45.6659	616.429	-0.0592	0.0182	-0.0073	-0.0462	0.0165	0.9585
44.0777	15.0182	42.8091	-0.42346	-15.5969	5.8138	46.8806	5.9881	653.8294	-50.3049	268.5656	43.698	607.8037	-0.0592	0.0182	-0.0073	-0.0462	0.0165	0.9585
44.09	20.2277	80.3793	-0.57997	-29.1909	7.7113	88.281	10.9001	651.0633	-50.5504	267.0922	41.4925	600.7942	-0.0592	0.0182	-0.0073	-0.0462	0.0165	0.9585
44.1023	24.6919	129.7359	-0.72295	-47.0377	9.2657	142.704	15.6721	648.4504	-50.3812	265.701	38.9766	594.2142	-0.0592	0.0182	-0.0073	-0.0462	0.0165	0.9585
44.1146	26.5962	188.0669	-0.81107	-68.1163	9.7843	207.0827	20.086	644.0996	-49.6409	263.6287	36.1166	586.4333	-0.0592	0.0182	-0.0073	-0.0462	0.0165	0.9585
44.1269	23.6938	248.2512	-0.6866	-89.8487	8.3278	273.6207	23.949	635.8292	-48.2257	259.9949	32.9164	575.5516	-0.0592	0.0182	-0.0073	-0.0462	0.0165	0.9585
44.1391	15.9935	300.5828	0.47414	-108.7039	4.064	331.669	27.0901	621.613	-46.1237	253.9848	29.4551	559.7993	-0.0592	0.0182	-0.0073	-0.0462	0.0165	0.9585
44.1514	6.4973	339.6411	3.5088	-122.6757	-2.791	374.9944	29.4163	600.1562	-43.4188	245.0762	25.8711	538.0207	-0.0592	0.0182	-0.0073	-0.0462	0.0165	0.9585
44.1637	-2.6489	366.1967	7.4486	-132.0547	-10.4571	404.1148	30.8982	571.1636	-40.3237	233.1288	22.3688	509.9661	-0.0592	0.0182	-0.0073	-0.0462	0.0165	0.9585
44.176	-10.2087	384.3405	12.0746	-138.3353	-18.1909	423.3104	31.6714	534.9658	-37.1445	218.2618	19.1621	475.8968	-0.0592	0.0182	-0.0073	-0.0462	0.0165	0.9585
